<svg xmlns="http://www.w3.org/2000/svg" width="24" height="24" viewBox="0 0 24 24"><path fill="#C5C5C5" d="M10.592 13.05a.5.5 0 0 1 .816-.579c.424.598 1.069.97 1.767 1.023a2.346 2.346 0 0 0 1.881-.744l1.753-1.848c.933-1.02.92-2.65-.03-3.653-.936-.987-2.437-1-3.383-.036L12.388 8.27a.5.5 0 1 1-.724-.69l1.013-1.062a3.323 3.323 0 0 1 4.828.044c1.31 1.383 1.329 3.608.035 5.021l-1.758 1.855a3.346 3.346 0 0 1-2.682 1.053 3.394 3.394 0 0 1-2.508-1.442zm2.816-2.1a.5.5 0 0 1-.816.579 2.394 2.394 0 0 0-1.767-1.023 2.346 2.346 0 0 0-1.881.744L7.19 13.098c-.933 1.02-.92 2.65.03 3.653.936.987 2.437 1 3.382.037l1.003-1.057a.5.5 0 1 1 .725.688l-1.008 1.063a3.323 3.323 0 0 1-4.828-.044c-1.31-1.383-1.329-3.608-.035-5.021l1.758-1.855A3.346 3.346 0 0 1 10.9 9.509a3.394 3.394 0 0 1 2.508 1.442z"/></svg>