<svg xmlns="http://www.w3.org/2000/svg" width="24" height="24" viewBox="0 0 24 24"><path fill="#C5C5C5" d="M18 13.421V7.91c0-.502-.384-.909-.857-.909H6.857C6.384 7 6 7.407 6 7.91v8.18c0 .503.384.91.857.91H9l6.5-6 2.5 2.421zM18 15l-2.5-2.5-5 4.5h6.634c.478 0 .866-.42.866-.937V15zM6.75 6h10.5c.966 0 1.75.827 1.75 1.846v8.308c0 1.02-.784 1.846-1.75 1.846H6.75C5.784 18 5 17.173 5 16.154V7.846C5 6.826 5.784 6 6.75 6zm3.75 5a1.5 1.5 0 1 1 0-3 1.5 1.5 0 0 1 0 3zm0-1a.5.5 0 1 0 0-1 .5.5 0 0 0 0 1z"/></svg>