<svg xmlns="http://www.w3.org/2000/svg" xmlns:xlink="http://www.w3.org/1999/xlink" width="24" height="24" viewBox="0 0 24 24">
  <defs>
    <path id="ic-type-array-a" d="M9,6 L9,7 L7,7 L7,17 L9,17 L9,18 L7,18 C6.44771525,18 6,17.5522847 6,17 L6,7 C6,6.44771525 6.44771525,6 7,6 L9,6 Z M18,6 C18.5522847,6 19,6.44771525 19,7 L19,17 C19,17.5522847 18.5522847,18 18,18 L16,18 L16,17 L18,17 L18,7 L16,7 L16,6 L18,6 Z"/>
  </defs>
  <g fill="none" fill-rule="evenodd">
    <use fill="#C5C5C5" xlink:href="#ic-type-array-a"/>
    <rect width="1" height="1" x="12" y="14" fill="#C5C5C5"/>
    <rect width="1" height="1" x="14" y="14" fill="#C5C5C5"/>
    <rect width="1" height="1" x="10" y="14" fill="#C5C5C5"/>
  </g>
</svg>
