<svg xmlns="http://www.w3.org/2000/svg" width="24" height="24" viewBox="0 0 24 24"><path fill="#C5C5C5" d="M7.844 11.5c0 .855.618 1.55 1.378 1.55h1.303a.475.475 0 1 1 0 .95H9.222C7.996 14 7 12.88 7 11.5S7.996 9 9.222 9h1.303a.475.475 0 1 1 0 .95H9.222c-.76 0-1.378.695-1.378 1.55zm2.656.5a.5.5 0 1 1 0-1h3a.5.5 0 1 1 0 1h-3zm4.278-3C16.004 9 17 10.12 17 11.5s-.996 2.5-2.222 2.5h-1.303a.475.475 0 1 1 0-.95h1.303c.76 0 1.378-.695 1.378-1.55 0-.855-.618-1.55-1.378-1.55h-1.303a.475.475 0 1 1 0-.95h1.303zM7 7a2 2 0 0 0-2 2v5a2 2 0 0 0 2 2h10a2 2 0 0 0 2-2V9a2 2 0 0 0-2-2H7zm0-1h10a3 3 0 0 1 3 3v5a3 3 0 0 1-3 3H7a3 3 0 0 1-3-3V9a3 3 0 0 1 3-3z"/></svg>