<svg xmlns="http://www.w3.org/2000/svg" width="24" height="24" viewBox="0 0 24 24"><path fill="#C5C5C5" d="M9.849 6.837l5.601 2.4a.473.473 0 0 1 .037.019l1.942-.896-5.044-2.343a.93.93 0 0 0-.77 0l-1.766.82zm-1.137.528L6.57 8.36 12 10.865l2.349-1.084-5.637-2.416zm3.755 10.579l5.146-2.39c.281-.13.454-.388.454-.663V9.108v-.015l-5.6 2.585v6.266zm-.934.003v-6.27l-5.6-2.584v5.796c-.002.275.169.534.449.665l5.151 2.393zM12.777 5.17l5.227 2.427c.606.28.996.864.996 1.51v5.784c0 .646-.39 1.23-.995 1.51l-5.227 2.427c-.493.23-1.07.23-1.563 0L5.988 16.4c-.606-.283-.993-.871-.988-1.515V9.107c0-.646.39-1.23.995-1.51l5.228-2.427a1.863 1.863 0 0 1 1.554 0z"/></svg>