<svg xmlns="http://www.w3.org/2000/svg" width="24" height="24" viewBox="0 0 24 24">
  <path fill="#424242" d="M17,4 C17.5522847,4 18,4.44771525 18,5 L18,19 C18,19.5522847 17.5522847,20 17,20 L7,20 C6.44771525,20 6,19.5522847 6,19 L6,5 C6,4.44771525 6.44771525,4 7,4 L17,4 Z M17,5 L7,5 L7,19 L17,19 L17,5 Z M14,16 L14,17 L9,17 L9,16 L14,16 Z M15,14 L15,15 L9,15 L9,14 L15,14 Z M15,12 L15,13 L9,13 L9,12 L15,12 Z M15,11 L9,11 L9,7 L15,7 L15,11 Z M13.999,10 L14,8 L10,8 L9.999,10 L13.999,10 Z"/>
</svg>
