<svg xmlns="http://www.w3.org/2000/svg" width="24" height="24" viewBox="0 0 24 24"><path fill="#424242" d="M15.478 16A3.002 3.002 0 0 0 18 13.447V9a2 2 0 0 0-2-2H6a2 2 0 0 0-2 2v5a2 2 0 0 0 2 2h9.478zm3.391-7.88A2.973 2.973 0 0 1 21 10.973V16a3 3 0 0 1-3 3H7.853c-1.33 0-2.447-.91-2.763-2.14A3.001 3.001 0 0 1 3 14V9a3 3 0 0 1 3-3h10c1.35 0 2.493.893 2.869 2.12zM19 13.513V14a3 3 0 0 1-3 3h-.451a4.04 4.04 0 0 1-.476.033l-8.79.1c.329.52.909.867 1.57.867H18a2 2 0 0 0 2-2v-5.028a1.97 1.97 0 0 0-.972-1.7v3.762c0 .161-.01.321-.028.478zM6.844 11.5c0 .855.618 1.55 1.378 1.55h1.303a.475.475 0 1 1 0 .95H8.222C6.996 14 6 12.88 6 11.5S6.996 9 8.222 9h1.303a.475.475 0 1 1 0 .95H8.222c-.76 0-1.378.695-1.378 1.55zM9.5 12a.5.5 0 1 1 0-1h3a.5.5 0 1 1 0 1h-3zm4.278-3C15.004 9 16 10.12 16 11.5s-.996 2.5-2.222 2.5h-1.303a.475.475 0 1 1 0-.95h1.303c.76 0 1.378-.695 1.378-1.55 0-.855-.618-1.55-1.378-1.55h-1.303a.475.475 0 1 1 0-.95h1.303z"/></svg>