<svg xmlns="http://www.w3.org/2000/svg" width="24" height="24" viewBox="0 0 24 24"><path fill="#424242" d="M6.923 13.521c0 2.5 2.325 4.61 5.077 4.61s5.077-2.111 5.077-4.61c0-3.839-5.02-7.41-5.07-7.444-.064.033-5.084 3.603-5.084 7.444zm-.923 0c0-4.265 5.4-8.113 5.454-8.152L12 5l.546.37C12.601 5.406 18 9.254 18 13.52 18 16.492 15.252 19 12 19s-6-2.51-6-5.48zm6.462 1.903c1.48-.057 2.766-1.2 2.769-2.595 0-1.399-1.297-2.537-2.77-2.595v5.19zm1.846-2.595c0 .595-.434 1.12-.923 1.43v-2.86c.489.31.923.836.923 1.43z"/></svg>