<svg xmlns="http://www.w3.org/2000/svg" width="24" height="24" viewBox="0 0 24 24">
  <g fill="#424242" transform="translate(6 5)">
    <path d="M4.28997975,0.000676080158 C4.75452726,-0.0120412006 4.99108611,0.154653563 4.9996563,0.50076037 C5.00822649,0.846867177 4.85652115,1.02392005 4.54454026,1.031919 C3.5247731,1.06802839 2.96061596,1.82465146 2.90644424,3.53425917 L2.90222336,3.77331626 C2.89560036,5.31932172 2.4895531,6.42226934 1.67008184,7.00082135 C2.4895531,7.57773066 2.89560036,8.68067828 2.90222336,10.2266837 L2.90222336,10.2266837 L2.90644424,10.4657408 C2.96061596,12.1753485 3.5247731,12.9319716 4.54454026,12.968081 C4.85652115,12.9760799 5.00822649,13.1531328 4.9996563,13.4992396 C4.99108611,13.8453464 4.75452726,14.0120412 4.28997975,13.9993239 C2.51632432,13.8462052 1.6524678,12.5105023 1.64269994,10.2303932 L1.64269994,10.2303932 L1.63851497,9.99250536 C1.58483182,8.29274137 1.0259641,7.57350576 0.00617203901,7.57764924 L0.00617203901,7.57764924 L0.005,7.466 L0,7.46666667 L0.003,7 L0,6.53333333 L0.005,6.533 L0.00617203901,6.42235076 C1.0259641,6.42649424 1.58483182,5.70725863 1.63851497,4.00749464 L1.64269994,3.76960683 C1.6524678,1.48949769 2.51632432,0.153794822 4.28997975,0.000676080158 Z"/>
    <path d="M11.2899797,0.000676080158 C11.7545273,-0.0120412006 11.9910861,0.154653563 11.9996563,0.50076037 C12.0082265,0.846867177 11.8565211,1.02392005 11.5445403,1.031919 C10.5247731,1.06802839 9.96061596,1.82465146 9.90644424,3.53425917 L9.90222336,3.77331626 C9.89560036,5.31932172 9.4895531,6.42226934 8.67008184,7.00082135 C9.4895531,7.57773066 9.89560036,8.68067828 9.90222336,10.2266837 L9.90222336,10.2266837 L9.90644424,10.4657408 C9.96061596,12.1753485 10.5247731,12.9319716 11.5445403,12.968081 C11.8565211,12.9760799 12.0082265,13.1531328 11.9996563,13.4992396 C11.9910861,13.8453464 11.7545273,14.0120412 11.2899797,13.9993239 C9.51632432,13.8462052 8.6524678,12.5105023 8.64269994,10.2303932 L8.64269994,10.2303932 L8.63851497,9.99250536 C8.58483182,8.29274137 8.0259641,7.57350576 7.00617204,7.57764924 L7.00617204,7.57764924 L7.005,7.466 L7,7.46666667 L7.003,7 L7,6.53333333 L7.005,6.533 L7.00617204,6.42235076 C8.0259641,6.42649424 8.58483182,5.70725863 8.63851497,4.00749464 L8.64269994,3.76960683 C8.6524678,1.48949769 9.51632432,0.153794822 11.2899797,0.000676080158 Z" transform="matrix(-1 0 0 1 19 0)"/>
  </g>
</svg>
