<svg xmlns="http://www.w3.org/2000/svg" width="20" height="20" viewBox="0 0 20 20">
  <path
    d="M14.5,4 L5.5,4 C4.11928813,4 3,5.11928813 3,6.5 L3,14.5 C3,15.8807119 4.11928813,17 5.5,17 L14.5,17 C15.8807119,17 17,15.8807119 17,14.5 L17,6.5 C17,5.83695878 16.7366079,5.20107399 16.267767,4.73223305 C15.798926,4.2633921 15.1630412,4 14.5,4 Z M4,9 L7,9 L7,12 L4,12 L4,9 Z M5.5,16 C4.67157288,16 4,15.3284271 4,14.5 L4,13 L7,13 L7,16 L5.5,16 Z M16,14.5 C16,15.3284271 15.3284271,16 14.5,16 L8,16 L8,13 L16,13 L16,14.5 Z M16,12 L8,12 L8,9 L16,9 L16,12 Z M4,8 L4,6.5 C4,5.67157288 4.67157288,5 5.5,5 L14.5,5 C15.3284271,5 16,5.67157288 16,6.5 L16,8 L4,8 Z" />
</svg>