<?xml version="1.0" encoding="UTF-8" standalone="no"?>
<svg
   xmlns:dc="http://purl.org/dc/elements/1.1/"
   xmlns:cc="http://creativecommons.org/ns#"
   xmlns:rdf="http://www.w3.org/1999/02/22-rdf-syntax-ns#"
   xmlns:svg="http://www.w3.org/2000/svg"
   xmlns="http://www.w3.org/2000/svg"
   xmlns:sodipodi="http://sodipodi.sourceforge.net/DTD/sodipodi-0.dtd"
   xmlns:inkscape="http://www.inkscape.org/namespaces/inkscape"
   width="52px"
   height="52px"
   viewBox="0 0 52 52"
   version="1.1"
   id="svg11"
   sodipodi:docname="data_collection_backoffice_black.svg"
   inkscape:version="0.92.5 (2060ec1f9f, 2020-04-08)">
  <metadata
     id="metadata15">
    <rdf:RDF>
      <cc:Work
         rdf:about="">
        <dc:format>image/svg+xml</dc:format>
        <dc:type
           rdf:resource="http://purl.org/dc/dcmitype/StillImage" />
        <dc:title>data_collection_backoffice</dc:title>
      </cc:Work>
    </rdf:RDF>
  </metadata>
  <sodipodi:namedview
     pagecolor="#ffffff"
     bordercolor="#666666"
     borderopacity="1"
     objecttolerance="10"
     gridtolerance="10"
     guidetolerance="10"
     inkscape:pageopacity="0"
     inkscape:pageshadow="2"
     inkscape:window-width="1920"
     inkscape:window-height="1015"
     id="namedview13"
     showgrid="false"
     inkscape:zoom="4.5384615"
     inkscape:cx="26"
     inkscape:cy="26"
     inkscape:window-x="0"
     inkscape:window-y="0"
     inkscape:window-maximized="1"
     inkscape:current-layer="svg11" />
  <!-- Generator: Sketch 41 (35326) - http://www.bohemiancoding.com/sketch -->
  <title
     id="title2">data_collection_backoffice</title>
  <desc
     id="desc4">Created with Sketch.</desc>
  <defs
     id="defs6" />
  <g
     id="Page-1"
     stroke="none"
     stroke-width="1"
     fill="none"
     fill-rule="evenodd"
     style="fill:#000000">
    <g
       id="data_collection_backoffice"
       fill="#59BAF0"
       style="fill:#000000">
      <path
         d="M42.0195,44 L26.9995,44 C25.3395,44 23.9995,42.66 23.9995,41 C23.9995,40.65 24.0605,40.311 24.1795,40 C24.5805,38.83 25.6895,38 26.9995,38 L26.9995,37 C26.9995,36.65 27.0405,36.32 27.1295,36 C27.2195,35.641 27.3605,35.311 27.5405,35 C27.8895,34.391 28.3895,33.891 28.9995,33.54 C29.3105,33.359 29.6395,33.22 29.9995,33.13 C30.3205,33.04 30.6505,33 30.9995,33 L32.1505,33 C32.3495,32.13 32.8105,30.87 33.8895,30 C34.6105,29.41 35.6205,29 36.9995,29 C37.3605,29 37.6895,29.03 37.9995,29.08 C41.8605,29.71 41.9995,34 41.9995,34 L42.0095,34 C42.3495,34 42.6795,34.03 42.9995,34.1 C44.7095,34.43 46.1695,35.63 46.7305,37.32 C47.8605,40.78 45.3105,44 42.0195,44 L42.0195,44 Z M13.9995,23 L20.9995,23 L20.9995,18 L13.9995,18 L13.9995,23 Z M13.9995,35 L20.9995,35 L20.9995,30 L13.9995,30 L13.9995,35 Z M13.9995,29 L20.9995,29 L20.9995,24 L13.9995,24 L13.9995,29 Z M29.9995,23 L36.9995,23 L36.9995,18 L29.9995,18 L29.9995,23 Z M32.4695,30 C32.0195,30.561 31.6505,31.23 31.3895,32 L30.9995,32 C30.6605,32 30.3205,32.03 29.9995,32.1 L29.9995,30 L32.4695,30 Z M29.9995,29 L29.9995,24 L36.9995,24 L36.9995,28 C35.6505,28 34.4905,28.35 33.5495,29 L29.9995,29 Z M21.9995,23 L28.9995,23 L28.9995,18 L21.9995,18 L21.9995,23 Z M21.9995,29 L28.9995,29 L28.9995,24 L21.9995,24 L21.9995,29 Z M26.4105,35 L21.9995,35 L21.9995,30 L28.9995,30 L28.9995,32.41 C27.8495,32.92 26.9195,33.85 26.4105,35 L26.4105,35 Z M9.9995,40 C9.4505,40 8.9995,39.55 8.9995,39 L8.9995,14 C8.9995,13.45 9.4505,13 9.9995,13 L40.9995,13 C41.5495,13 41.9995,13.45 41.9995,14 L41.9995,30.67 C41.2405,29.42 39.9805,28.34 37.9995,28.07 L37.9995,18 C37.9995,17.45 37.5495,17 36.9995,17 L13.9995,17 C13.4505,17 12.9995,17.45 12.9995,18 L12.9995,35 C12.9995,35.55 13.4505,36 13.9995,36 L26.0995,36 C26.0305,36.32 25.9995,36.66 25.9995,37 L25.9995,37.13 C24.5995,37.49 23.4905,38.6 23.1295,40 L9.9995,40 Z M47.6795,37.01 C46.9995,34.92 45.1895,33.43 42.9995,33.08 L42.9995,14 C42.9995,12.9 42.0995,12 40.9995,12 L9.9995,12 C8.9005,12 7.9995,12.9 7.9995,14 L7.9995,39 C7.9995,40.1 8.9005,41 9.9995,41 L22.9995,41 C22.9995,43.21 24.7905,45 26.9995,45 L42.0195,45 C43.9195,45 45.7305,44.07 46.8605,42.52 C47.9995,40.939 48.2995,38.93 47.6795,37.01 L47.6795,37.01 Z"
         id="Fill-1"
         style="fill:#000000" />
    </g>
  </g>
</svg>
