<?xml version="1.0" encoding="UTF-8" standalone="no"?>
<svg
   width="64.0px"
   height="64.0px"
   viewBox="0 0 64.0 64.0"
   version="1.1"
   id="SVGRoot"
   xmlns="http://www.w3.org/2000/svg"
   xmlns:svg="http://www.w3.org/2000/svg">

  <g id="layer1"><path
   id="path1312"
   style="stroke-width:4.18786"
   d="M 23.455078 0.28320312 C 16.082246 0.28320312 9.4099583 1.7765856 4.5664062 4.1992188 C 1.7517517 5.6034485 -5.9211895e-16 8.8551629 0 12.376953 L 0 49.460938 C 0 54.162641 2.5243988 58.397793 6.3710938 60.003906 C 11.007454 61.928553 16.961827 63.091797 23.455078 63.091797 C 23.592662 63.091797 23.726189 63.083071 23.863281 63.082031 L 22.669922 58.587891 C 16.859178 58.502035 11.611676 57.48729 7.7519531 55.869141 A 5.8677735 6.7340224 0 0 1 3.9101562 49.529297 L 3.9101562 40.449219 C 7.0466541 42.852599 12.559815 44.611313 19.103516 45.160156 L 17.824219 40.345703 C 13.964622 39.919681 10.502407 39.076928 7.7519531 37.923828 A 5.8677735 6.7340224 0 0 1 3.9101562 31.583984 L 3.9101562 22.503906 C 7.7216681 25.424524 15.038478 27.398437 23.455078 27.398438 C 31.871678 27.398438 39.194352 25.424524 43.001953 22.503906 L 43.001953 29.511719 C 44.02465 29.859091 45.160058 30.439175 46.050781 31.564453 C 46.370475 31.959221 46.653075 32.375888 46.910156 32.802734 L 46.910156 12.376953 C 46.910156 8.8551629 45.160357 5.6034485 42.345703 4.1992188 C 37.50215 1.7765856 30.827909 0.28320312 23.455078 0.28320312 z M 23.455078 4.7695312 C 29.569134 4.7695312 35.108241 5.7871002 39.142578 7.4335938 C 41.464668 8.3802151 43.001953 10.906811 43.001953 13.742188 C 43.001953 16.577565 41.464668 19.102205 39.142578 20.048828 C 35.108241 21.695317 29.569134 22.714844 23.455078 22.714844 C 17.341022 22.714844 11.80192 21.695317 7.7675781 20.048828 A 5.8169532 6.6756993 0 0 1 3.9101562 13.742188 C 3.9101562 10.906811 5.4454878 8.380215 7.7675781 7.4335938 C 11.80192 5.7871002 17.341022 4.7695313 23.455078 4.7695312 z M 42.671875 33.810547 C 42.366363 34.820742 41.856783 35.730645 41.1875 36.466797 C 41.875406 36.79667 42.377854 37.366256 42.613281 37.792969 C 42.95903 38.419638 43.0613 38.938613 43.125 39.210938 C 43.261508 39.678122 43.433772 40.388915 43.75 41.667969 C 44.079522 43.000792 44.504634 44.738256 44.957031 46.578125 C 45.477727 48.695759 46.007041 50.831929 46.490234 52.759766 A 9.7496516 11.188976 0 0 0 46.910156 49.460938 L 46.910156 46.388672 L 44.771484 38.222656 L 44.765625 38.195312 C 44.446006 36.818496 43.732149 35.050297 42.9375 34.072266 L 42.927734 34.060547 L 42.917969 34.048828 C 42.854392 33.968032 42.768715 33.888406 42.671875 33.810547 z M 37.179688 38.650391 C 36.427517 38.899536 35.635455 39.126674 34.810547 39.333984 L 33.582031 44.314453 C 34.385305 44.140621 35.156975 43.944818 35.900391 43.732422 C 36.347729 41.911682 36.923711 39.556592 37.027344 39.167969 L 37.037109 39.130859 L 37.048828 39.09375 C 37.057115 39.066818 37.097796 38.893924 37.179688 38.650391 z M 30.484375 40.173828 C 29.766371 40.274834 29.033537 40.361588 28.285156 40.431641 L 29.382812 44.636719 L 30.484375 40.173828 z M 22.039062 40.628906 L 23.291016 45.341797 C 23.346083 45.341966 23.399916 45.34375 23.455078 45.34375 C 24.118978 45.34375 24.772784 45.326795 25.421875 45.302734 L 24.207031 40.644531 C 23.955181 40.648095 23.708996 40.660156 23.455078 40.660156 C 22.976908 40.660156 22.509694 40.641455 22.039062 40.628906 z M 42.337891 52.648438 C 41.679158 54.107915 40.566031 55.27791 39.158203 55.869141 C 38.416701 56.180008 37.609185 56.459869 36.771484 56.724609 C 36.723203 56.909645 36.64497 57.226803 36.601562 57.390625 C 36.600962 57.392825 36.598238 57.398191 36.597656 57.400391 C 36.15409 59.275017 35.717769 60.643401 35.142578 61.740234 C 37.081412 61.267564 38.896381 60.685816 40.539062 60.003906 A 9.7496516 11.188976 0 0 0 43.666016 57.839844 C 43.628098 57.69943 43.591188 57.584161 43.552734 57.4375 C 43.247706 56.287591 42.812956 54.557104 42.337891 52.648438 z M 32.355469 57.818359 C 30.604364 58.141663 28.732338 58.364405 26.78125 58.488281 L 27.677734 61.863281 C 27.709904 61.862581 27.703558 61.866234 27.736328 61.865234 C 28.535559 61.840643 29.492061 61.647801 29.677734 61.556641 C 30.605798 61.085768 30.926889 60.90329 31.308594 60.367188 C 31.604235 59.951961 31.963406 59.176784 32.355469 57.818359 z " />

  <g
   id="path947"
   transform="translate(0.238,-0.30000003)">
  <path
     style="color:#000000;fill:#000000;stroke-width:4"
     d="M 56.853071,31.664472 C 55.370614,32.89035 55,35 55,35 L 50.210524,53.359659 46.276311,38.335528 c -0.370615,-1.596492 -1.111843,-3.563598 -2.223685,-4.93202 -1.368422,-1.739036 -4.219301,-1.853071 -4.561406,-1.853071 -0.25658,0 -3.07895,0.114035 -4.561406,1.853071 -1.111843,1.368422 -1.853072,3.335528 -2.223685,4.93202 L 28.999986,53.359659 24.21051,35 c 0,0 -0.370615,-1.967106 -1.853072,-3.335528 -2.33772,-2.10965 -5.787284,-1.596492 -5.787284,-1.596492 l 9.122813,34.353089 c 0,0 2.964913,0.256579 4.44737,-0.484649 1.967106,-0.997808 2.964914,-1.710528 4.076757,-6.414478 1.111842,-4.190791 4.076757,-16.392552 4.304827,-17.247816 0.114035,-0.370614 0.370614,-1.482457 1.111843,-1.482457 0.741228,0 0.997807,0.997808 1.111842,1.482457 0.256579,0.855264 3.192984,13.057025 4.304827,17.247816 1.225878,4.675441 2.081141,5.41667 4.076757,6.414478 1.482456,0.741228 4.447371,0.484649 4.447371,0.484649 L 62.640355,30.06798 c 0,0 -3.449563,-0.48465 -5.787284,1.596492 z"
     id="path3535" />
</g>

</g>
</svg>
